<svg xmlns="http://www.w3.org/2000/svg" viewBox="0 0 64 64" role="img" aria-label="thr theta-rho editor">
  <defs>
    <linearGradient id="br" x1="0" y1="0" x2="1" y2="0">
      <stop offset="0%" stop-color="#3a86ff"/>
      <stop offset="100%" stop-color="#ff2d2d"/>
    </linearGradient>
  </defs>
  <circle cx="32" cy="32" r="30" fill="#0e1013" stroke="#3a86ff" stroke-width="3"/>
  <circle cx="32" cy="32" r="25.5" fill="none" stroke="#3a86ff" stroke-opacity="0.33" stroke-width="1"/>
  <path transform="translate(32 33) scale(0.016625 -0.016625) translate(-1209.00 -809.50)" fill="url(#br)" d="M498 1504V1295H607V1085H498V375Q498 244 511.5 229.0Q525 214 624 214V0H461Q323 0 264.0 11.5Q205 23 160.0 64.5Q115 106 104.0 159.5Q93 213 93 411V1085H6V1295H93V1504ZM1100 1619V1255Q1152 1303 1212.5 1327.0Q1273 1351 1342 1351Q1448 1351 1522.5 1297.0Q1597 1243 1613.5 1172.5Q1630 1102 1630 915V0H1226V934Q1226 1050 1214.5 1083.0Q1203 1116 1163 1116Q1126 1116 1113.0 1082.0Q1100 1048 1100 947V0H696V1619ZM2173 1327 2157 1153Q2245 1340 2412 1351V884Q2301 884 2249.0 854.0Q2197 824 2185.0 770.5Q2173 717 2173 524V0H1769V1327Z"/>
</svg>
