<svg xmlns="http://www.w3.org/2000/svg" viewBox="0 0 64 64" role="img" aria-label="Theta Rho sand table">
  <defs>
    <radialGradient id="sand" cx="40%" cy="34%" r="72%">
      <stop offset="0%" stop-color="#f6edd6"/>
      <stop offset="55%" stop-color="#e8d3a6"/>
      <stop offset="100%" stop-color="#d2b277"/>
    </radialGradient>
    <radialGradient id="ball" cx="35%" cy="32%" r="75%">
      <stop offset="0%" stop-color="#ffffff"/>
      <stop offset="45%" stop-color="#dfe6ef"/>
      <stop offset="100%" stop-color="#9aa6b6"/>
    </radialGradient>
    <radialGradient id="vignette" cx="50%" cy="50%" r="50%">
      <stop offset="70%" stop-color="#000000" stop-opacity="0"/>
      <stop offset="100%" stop-color="#3a2c12" stop-opacity="0.28"/>
    </radialGradient>
  </defs>
  <!-- table frame -->
  <circle cx="32" cy="32" r="31" fill="#3a2f1c"/>
  <circle cx="32" cy="32" r="29.5" fill="#6b5836"/>
  <!-- sand surface -->
  <circle cx="32" cy="32" r="28" fill="url(#sand)"/>
  <!-- raked theta-rho pattern (single continuous pen path through the centre) -->
  <path d="M52.50 32.00 L52.49 32.14 L52.46 32.28 L52.42 32.41 L52.36 32.55 L52.28 32.68 L52.18 32.82 L52.07 32.95 L51.94 33.08 L51.79 33.20 L51.62 33.32 L51.44 33.44 L51.24 33.56 L51.03 33.67 L50.80 33.78 L50.55 33.88 L50.29 33.98 L50.01 34.07 L49.72 34.16 L49.41 34.24 L49.09 34.32 L48.75 34.39 L48.40 34.45 L48.04 34.51 L47.66 34.56 L47.27 34.60 L46.87 34.63 L46.46 34.66 L46.03 34.68 L45.60 34.69 L45.15 34.70 L44.69 34.69 L44.23 34.68 L43.75 34.66 L43.27 34.63 L42.78 34.59 L42.28 34.54 L41.77 34.49 L41.25 34.42 L40.73 34.35 L40.21 34.27 L39.68 34.18 L39.14 34.08 L38.60 33.97 L38.06 33.85 L37.51 33.73 L36.96 33.59 L36.41 33.45 L35.86 33.29 L35.31 33.13 L34.75 32.96 L34.20 32.79 L33.65 32.60 L33.10 32.41 L32.55 32.21 L32.00 32.00 L32.54 32.22 L33.09 32.44 L33.62 32.67 L34.15 32.90 L34.68 33.15 L35.20 33.40 L35.72 33.65 L36.23 33.91 L36.73 34.18 L37.23 34.45 L37.72 34.73 L38.20 35.01 L38.67 35.29 L39.13 35.58 L39.59 35.87 L40.03 36.17 L40.46 36.46 L40.88 36.76 L41.30 37.06 L41.70 37.37 L42.09 37.67 L42.46 37.98 L42.83 38.28 L43.18 38.59 L43.52 38.89 L43.85 39.20 L44.16 39.50 L44.46 39.80 L44.75 40.10 L45.02 40.40 L45.28 40.69 L45.52 40.98 L45.75 41.27 L45.97 41.55 L46.17 41.83 L46.36 42.10 L46.53 42.37 L46.68 42.64 L46.83 42.89 L46.95 43.14 L47.07 43.38 L47.16 43.62 L47.25 43.85 L47.31 44.07 L47.37 44.28 L47.41 44.48 L47.43 44.67 L47.44 44.85 L47.44 45.03 L47.42 45.19 L47.39 45.34 L47.34 45.49 L47.28 45.62 L47.21 45.74 L47.12 45.84 L47.02 45.94 L46.91 46.02 L46.78 46.10 L46.64 46.15 L46.49 46.20 L46.33 46.23 L46.16 46.25 L45.98 46.26 L45.78 46.25 L45.58 46.23 L45.36 46.20 L45.14 46.15 L44.91 46.08 L44.66 46.01 L44.41 45.92 L44.15 45.81 L43.88 45.69 L43.61 45.56 L43.33 45.41 L43.04 45.25 L42.74 45.07 L42.44 44.88 L42.14 44.68 L41.83 44.46 L41.51 44.23 L41.19 43.99 L40.87 43.73 L40.54 43.45 L40.21 43.17 L39.88 42.87 L39.54 42.56 L39.21 42.23 L38.87 41.90 L38.54 41.55 L38.20 41.19 L37.86 40.82 L37.52 40.43 L37.19 40.04 L36.85 39.63 L36.52 39.22 L36.19 38.79 L35.86 38.36 L35.54 37.91 L35.22 37.46 L34.90 36.99 L34.59 36.52 L34.28 36.05 L33.97 35.56 L33.67 35.07 L33.38 34.57 L33.09 34.07 L32.81 33.56 L32.53 33.04 L32.26 32.52 L32.00 32.00 L32.26 32.53 L32.50 33.06 L32.74 33.59 L32.98 34.12 L33.20 34.66 L33.42 35.19 L33.63 35.73 L33.83 36.27 L34.02 36.80 L34.20 37.34 L34.38 37.87 L34.54 38.40 L34.70 38.93 L34.84 39.46 L34.98 39.98 L35.11 40.49 L35.23 41.01 L35.34 41.51 L35.44 42.01 L35.53 42.51 L35.61 42.99 L35.68 43.47 L35.74 43.95 L35.80 44.41 L35.84 44.86 L35.88 45.31 L35.90 45.74 L35.92 46.17 L35.93 46.58 L35.93 46.99 L35.92 47.38 L35.91 47.76 L35.88 48.12 L35.85 48.48 L35.81 48.82 L35.76 49.15 L35.71 49.46 L35.65 49.76 L35.58 50.05 L35.50 50.32 L35.42 50.57 L35.34 50.81 L35.24 51.03 L35.15 51.24 L35.04 51.43 L34.94 51.61 L34.82 51.77 L34.71 51.91 L34.59 52.03 L34.46 52.14 L34.34 52.23 L34.21 52.31 L34.07 52.36 L33.94 52.40 L33.80 52.42 L33.66 52.42 L33.52 52.41 L33.38 52.38 L33.24 52.33 L33.10 52.26 L32.96 52.18 L32.82 52.07 L32.68 51.96 L32.54 51.82 L32.40 51.67 L32.27 51.49 L32.14 51.31 L32.01 51.10 L31.88 50.88 L31.76 50.65 L31.63 50.39 L31.52 50.12 L31.40 49.84 L31.30 49.54 L31.19 49.23 L31.09 48.90 L31.00 48.55 L30.91 48.20 L30.83 47.83 L30.75 47.44 L30.68 47.05 L30.62 46.64 L30.56 46.21 L30.51 45.78 L30.47 45.34 L30.43 44.88 L30.41 44.42 L30.38 43.94 L30.37 43.46 L30.37 42.96 L30.37 42.46 L30.38 41.95 L30.40 41.43 L30.43 40.91 L30.46 40.38 L30.51 39.84 L30.56 39.30 L30.62 38.75 L30.69 38.20 L30.77 37.64 L30.85 37.08 L30.95 36.52 L31.05 35.96 L31.16 35.39 L31.28 34.83 L31.41 34.26 L31.54 33.69 L31.69 33.13 L31.84 32.56 L32.00 32.00 L31.83 32.56 L31.66 33.12 L31.48 33.67 L31.29 34.23 L31.09 34.77 L30.89 35.31 L30.68 35.85 L30.47 36.38 L30.25 36.91 L30.02 37.43 L29.79 37.94 L29.55 38.44 L29.31 38.93 L29.06 39.42 L28.81 39.90 L28.56 40.36 L28.30 40.82 L28.04 41.27 L27.77 41.71 L27.51 42.13 L27.24 42.55 L26.97 42.95 L26.69 43.34 L26.42 43.72 L26.15 44.08 L25.87 44.43 L25.60 44.77 L25.32 45.10 L25.05 45.41 L24.78 45.71 L24.51 45.99 L24.24 46.26 L23.97 46.51 L23.71 46.75 L23.45 46.98 L23.20 47.19 L22.94 47.38 L22.70 47.56 L22.45 47.73 L22.22 47.87 L21.98 48.01 L21.76 48.13 L21.54 48.23 L21.33 48.32 L21.12 48.39 L20.92 48.44 L20.73 48.48 L20.55 48.51 L20.38 48.52 L20.21 48.52 L20.06 48.50 L19.91 48.46 L19.78 48.42 L19.65 48.35 L19.54 48.28 L19.43 48.19 L19.34 48.08 L19.26 47.96 L19.19 47.83 L19.13 47.69 L19.08 47.53 L19.05 47.36 L19.02 47.18 L19.01 46.98 L19.02 46.78 L19.03 46.56 L19.06 46.33 L19.10 46.09 L19.16 45.84 L19.23 45.59 L19.31 45.32 L19.40 45.04 L19.51 44.76 L19.63 44.46 L19.77 44.16 L19.92 43.85 L20.08 43.53 L20.26 43.21 L20.45 42.88 L20.65 42.55 L20.87 42.21 L21.10 41.86 L21.34 41.51 L21.60 41.16 L21.86 40.80 L22.15 40.44 L22.44 40.08 L22.74 39.72 L23.06 39.35 L23.39 38.98 L23.73 38.61 L24.09 38.24 L24.45 37.87 L24.82 37.51 L25.21 37.14 L25.60 36.77 L26.01 36.41 L26.42 36.04 L26.85 35.68 L27.28 35.33 L27.72 34.97 L28.17 34.62 L28.63 34.28 L29.09 33.94 L29.56 33.60 L30.04 33.27 L30.52 32.94 L31.01 32.62 L31.50 32.31 L32.00 32.00 L31.50 32.30 L30.99 32.59 L30.48 32.88 L29.97 33.16 L29.46 33.43 L28.94 33.69 L28.43 33.95 L27.91 34.20 L27.39 34.43 L26.88 34.66 L26.36 34.88 L25.84 35.09 L25.33 35.30 L24.82 35.49 L24.32 35.67 L23.81 35.84 L23.31 36.01 L22.82 36.16 L22.33 36.30 L21.84 36.44 L21.37 36.56 L20.89 36.67 L20.43 36.78 L19.97 36.87 L19.52 36.96 L19.08 37.03 L18.65 37.10 L18.23 37.15 L17.82 37.20 L17.42 37.23 L17.03 37.26 L16.65 37.28 L16.28 37.28 L15.92 37.28 L15.58 37.27 L15.25 37.25 L14.93 37.23 L14.63 37.19 L14.34 37.15 L14.06 37.10 L13.80 37.04 L13.56 36.98 L13.33 36.90 L13.11 36.82 L12.91 36.74 L12.73 36.65 L12.56 36.55 L12.41 36.45 L12.27 36.34 L12.15 36.22 L12.05 36.10 L11.97 35.98 L11.90 35.85 L11.85 35.72 L11.82 35.59 L11.80 35.45 L11.80 35.31 L11.82 35.17 L11.86 35.02 L11.91 34.88 L11.99 34.73 L12.07 34.58 L12.18 34.43 L12.31 34.28 L12.45 34.13 L12.60 33.98 L12.78 33.83 L12.97 33.68 L13.18 33.54 L13.40 33.39 L13.65 33.25 L13.90 33.11 L14.18 32.97 L14.46 32.84 L14.77 32.71 L15.09 32.58 L15.42 32.46 L15.77 32.34 L16.13 32.22 L16.51 32.12 L16.90 32.01 L17.30 31.91 L17.71 31.82 L18.14 31.73 L18.58 31.65 L19.03 31.57 L19.49 31.50 L19.96 31.44 L20.45 31.38 L20.94 31.34 L21.44 31.29 L21.95 31.26 L22.46 31.23 L22.99 31.21 L23.52 31.20 L24.06 31.20 L24.61 31.20 L25.16 31.22 L25.71 31.24 L26.27 31.27 L26.84 31.30 L27.40 31.35 L27.97 31.40 L28.55 31.46 L29.12 31.53 L29.70 31.61 L30.27 31.70 L30.85 31.79 L31.42 31.89 L32.00 32.00 L31.43 31.88 L30.85 31.76 L30.29 31.63 L29.72 31.49 L29.16 31.34 L28.60 31.19 L28.05 31.02 L27.50 30.86 L26.96 30.68 L26.42 30.50 L25.89 30.32 L25.37 30.12 L24.86 29.93 L24.35 29.72 L23.85 29.52 L23.37 29.30 L22.89 29.09 L22.42 28.87 L21.96 28.64 L21.51 28.41 L21.08 28.18 L20.65 27.95 L20.24 27.71 L19.84 27.47 L19.45 27.23 L19.08 26.99 L18.71 26.74 L18.37 26.50 L18.03 26.25 L17.71 26.01 L17.41 25.77 L17.11 25.52 L16.84 25.28 L16.58 25.04 L16.33 24.80 L16.10 24.56 L15.88 24.33 L15.68 24.10 L15.50 23.87 L15.33 23.65 L15.17 23.43 L15.04 23.21 L14.92 23.01 L14.81 22.80 L14.72 22.60 L14.65 22.41 L14.59 22.23 L14.55 22.05 L14.52 21.87 L14.51 21.71 L14.52 21.55 L14.54 21.41 L14.57 21.27 L14.62 21.14 L14.69 21.02 L14.77 20.90 L14.87 20.80 L14.98 20.71 L15.10 20.63 L15.24 20.56 L15.40 20.50 L15.56 20.45 L15.74 20.41 L15.93 20.38 L16.14 20.37 L16.36 20.36 L16.59 20.37 L16.83 20.39 L17.08 20.42 L17.34 20.47 L17.62 20.53 L17.90 20.60 L18.20 20.68 L18.50 20.78 L18.81 20.89 L19.13 21.01 L19.46 21.14 L19.80 21.29 L20.15 21.45 L20.50 21.62 L20.85 21.81 L21.22 22.01 L21.59 22.22 L21.96 22.44 L22.34 22.68 L22.72 22.93 L23.11 23.19 L23.50 23.46 L23.89 23.74 L24.29 24.04 L24.69 24.35 L25.09 24.67 L25.48 24.99 L25.88 25.34 L26.28 25.69 L26.68 26.05 L27.08 26.42 L27.48 26.80 L27.88 27.19 L28.27 27.59 L28.66 28.00 L29.05 28.41 L29.43 28.84 L29.82 29.27 L30.19 29.71 L30.56 30.16 L30.93 30.61 L31.29 31.07 L31.65 31.53 L32.00 32.00 L31.66 31.53 L31.32 31.05 L30.99 30.57 L30.67 30.08 L30.35 29.59 L30.04 29.10 L29.74 28.61 L29.45 28.12 L29.17 27.62 L28.90 27.13 L28.63 26.63 L28.38 26.14 L28.13 25.65 L27.90 25.16 L27.67 24.67 L27.45 24.18 L27.25 23.70 L27.05 23.22 L26.86 22.74 L26.69 22.27 L26.52 21.81 L26.37 21.35 L26.22 20.89 L26.09 20.45 L25.97 20.01 L25.85 19.58 L25.75 19.15 L25.66 18.74 L25.58 18.33 L25.51 17.93 L25.45 17.55 L25.40 17.17 L25.36 16.80 L25.33 16.45 L25.30 16.11 L25.29 15.78 L25.29 15.46 L25.30 15.15 L25.32 14.86 L25.34 14.58 L25.38 14.32 L25.42 14.06 L25.47 13.83 L25.53 13.61 L25.60 13.40 L25.68 13.21 L25.76 13.03 L25.85 12.87 L25.95 12.73 L26.05 12.60 L26.16 12.49 L26.27 12.39 L26.40 12.32 L26.52 12.25 L26.65 12.21 L26.79 12.18 L26.93 12.17 L27.07 12.18 L27.22 12.20 L27.37 12.24 L27.52 12.30 L27.68 12.38 L27.84 12.47 L28.00 12.58 L28.16 12.71 L28.32 12.85 L28.49 13.01 L28.65 13.19 L28.81 13.39 L28.98 13.60 L29.14 13.83 L29.30 14.07 L29.46 14.33 L29.62 14.61 L29.78 14.90 L29.93 15.20 L30.09 15.53 L30.24 15.86 L30.38 16.21 L30.52 16.58 L30.66 16.96 L30.80 17.35 L30.93 17.75 L31.05 18.17 L31.17 18.60 L31.29 19.04 L31.40 19.50 L31.50 19.96 L31.60 20.44 L31.69 20.92 L31.78 21.42 L31.85 21.92 L31.93 22.43 L31.99 22.95 L32.05 23.48 L32.10 24.02 L32.14 24.56 L32.18 25.11 L32.21 25.67 L32.23 26.23 L32.24 26.79 L32.25 27.36 L32.24 27.94 L32.23 28.51 L32.21 29.09 L32.19 29.67 L32.15 30.25 L32.11 30.83 L32.06 31.42 L32.00 32.00 L32.07 31.42 L32.14 30.84 L32.22 30.26 L32.31 29.68 L32.41 29.11 L32.51 28.54 L32.62 27.98 L32.74 27.42 L32.87 26.86 L33.00 26.31 L33.14 25.77 L33.29 25.23 L33.44 24.70 L33.59 24.18 L33.76 23.67 L33.93 23.16 L34.10 22.67 L34.28 22.18 L34.46 21.70 L34.65 21.24 L34.84 20.78 L35.04 20.34 L35.24 19.91 L35.44 19.49 L35.65 19.08 L35.86 18.69 L36.07 18.30 L36.28 17.94 L36.50 17.58 L36.71 17.24 L36.93 16.91 L37.15 16.60 L37.36 16.31 L37.58 16.02 L37.80 15.76 L38.01 15.51 L38.22 15.27 L38.44 15.05 L38.65 14.85 L38.85 14.66 L39.06 14.49 L39.26 14.33 L39.46 14.19 L39.65 14.07 L39.84 13.96 L40.03 13.87 L40.21 13.80 L40.38 13.74 L40.55 13.70 L40.71 13.67 L40.87 13.67 L41.02 13.67 L41.16 13.70 L41.29 13.74 L41.42 13.79 L41.54 13.86 L41.65 13.95 L41.75 14.05 L41.84 14.17 L41.93 14.30 L42.00 14.45 L42.07 14.61 L42.12 14.79 L42.16 14.98 L42.20 15.18 L42.22 15.40 L42.23 15.63 L42.23 15.87 L42.22 16.12 L42.20 16.39 L42.16 16.67 L42.12 16.96 L42.06 17.26 L41.99 17.57 L41.91 17.89 L41.82 18.22 L41.71 18.56 L41.60 18.91 L41.47 19.26 L41.33 19.63 L41.17 20.00 L41.01 20.38 L40.83 20.77 L40.64 21.16 L40.44 21.56 L40.22 21.96 L40.00 22.37 L39.76 22.78 L39.51 23.20 L39.25 23.62 L38.98 24.04 L38.70 24.47 L38.41 24.89 L38.10 25.32 L37.79 25.75 L37.46 26.18 L37.13 26.61 L36.78 27.04 L36.43 27.47 L36.07 27.90 L35.69 28.32 L35.31 28.75 L34.92 29.17 L34.53 29.58 L34.12 30.00 L33.71 30.41 L33.29 30.81 L32.87 31.21 L32.44 31.61 L32.00 32.00 L32.44 31.62 L32.89 31.24 L33.34 30.87 L33.79 30.50 L34.25 30.15 L34.71 29.80 L35.18 29.45 L35.64 29.12 L36.11 28.80 L36.58 28.48 L37.05 28.17 L37.52 27.88 L37.99 27.59 L38.46 27.31 L38.92 27.04 L39.39 26.78 L39.85 26.54 L40.31 26.30 L40.77 26.07 L41.22 25.85 L41.67 25.65 L42.12 25.45 L42.56 25.27 L42.99 25.10 L43.42 24.94 L43.84 24.79 L44.25 24.65 L44.66 24.52 L45.05 24.40 L45.44 24.30 L45.82 24.20 L46.19 24.12 L46.55 24.05 L46.90 23.99 L47.24 23.93 L47.57 23.89 L47.89 23.87 L48.19 23.85 L48.49 23.84 L48.77 23.84 L49.03 23.85 L49.29 23.87 L49.53 23.90 L49.75 23.94 L49.97 23.99 L50.16 24.05 L50.35 24.12 L50.51 24.19 L50.67 24.28 L50.80 24.37 L50.92 24.47 L51.03 24.57 L51.12 24.69 L51.19 24.81 L51.24 24.93 L51.28 25.07 L51.31 25.21 L51.31 25.35 L51.30 25.50 L51.27 25.65 L51.23 25.81 L51.17 25.97 L51.09 26.14 L50.99 26.31 L50.88 26.48 L50.75 26.65 L50.60 26.83 L50.44 27.01 L50.26 27.19 L50.06 27.37 L49.85 27.56 L49.62 27.74 L49.38 27.92 L49.12 28.10 L48.84 28.29 L48.55 28.47 L48.24 28.65 L47.92 28.83 L47.58 29.00 L47.23 29.18 L46.87 29.35 L46.49 29.51 L46.10 29.68 L45.69 29.84 L45.27 30.00 L44.84 30.15 L44.40 30.30 L43.95 30.44 L43.48 30.58 L43.01 30.72 L42.52 30.85 L42.03 30.97 L41.52 31.09 L41.01 31.20 L40.49 31.30 L39.96 31.40 L39.42 31.49 L38.88 31.57 L38.33 31.65 L37.77 31.72 L37.21 31.78 L36.64 31.84 L36.07 31.88 L35.49 31.92 L34.92 31.96 L34.34 31.98 L33.75 32.00 L33.17 32.01 L32.59 32.01 L32.00 32.00 L32.59 32.01 L33.17 32.04 L33.75 32.07 L34.33 32.11 L34.91 32.15 L35.49 32.21 L36.06 32.27 L36.63 32.34 L37.20 32.41 L37.75 32.50 L38.31 32.59 L38.85 32.69 L39.40 32.79 L39.93 32.90 L40.45 33.02 L40.97 33.14 L41.48 33.27 L41.98 33.41 L42.47 33.55 L42.95 33.70 L43.42 33.85 L43.88 34.00 L44.33 34.17 L44.77 34.33 L45.19 34.50 L45.60 34.67 L46.00 34.85 L46.39 35.03 L46.76 35.21 L47.12 35.40 L47.46 35.58 L47.79 35.77 L48.10 35.96 L48.40 36.15 L48.69 36.35 L48.96 36.54 L49.21 36.73 L49.45 36.92 L49.67 37.11 L49.88 37.30 L50.07 37.49 L50.24 37.68 L50.40 37.87 L50.53 38.05 L50.66 38.23 L50.76 38.40 L50.85 38.58 L50.93 38.75 L50.98 38.91 L51.02 39.07 L51.04 39.22 L51.05 39.37 L51.04 39.52 L51.01 39.65 L50.96 39.79 L50.90 39.91 L50.83 40.03 L50.73 40.14 L50.63 40.24 L50.50 40.33 L50.36 40.42 L50.21 40.50 L50.04 40.57 L49.85 40.63 L49.65 40.68 L49.44 40.72 L49.21 40.75 L48.97 40.77 L48.71 40.79 L48.45 40.79 L48.17 40.78 L47.88 40.76 L47.57 40.73 L47.26 40.69 L46.93 40.63 L46.59 40.57 L46.24 40.50 L45.89 40.41 L45.52 40.31 L45.14 40.20 L44.76 40.08 L44.36 39.95 L43.96 39.81 L43.56 39.65 L43.14 39.49 L42.72 39.31 L42.29 39.12 L41.86 38.92 L41.43 38.71 L40.99 38.49 L40.54 38.26 L40.09 38.01 L39.64 37.76 L39.19 37.49 L38.73 37.22 L38.28 36.93 L37.82 36.63 L37.36 36.33 L36.90 36.01 L36.44 35.69 L35.99 35.36 L35.53 35.01 L35.08 34.66 L34.63 34.30 L34.18 33.94 L33.74 33.56 L33.30 33.18 L32.86 32.79 L32.43 32.40 L32.00 32.00 L32.42 32.41 L32.84 32.82 L33.25 33.23 L33.65 33.66 L34.05 34.08 L34.43 34.51 L34.81 34.94 L35.19 35.38 L35.55 35.81 L35.91 36.25 L36.25 36.69 L36.59 37.14 L36.92 37.58 L37.24 38.02 L37.55 38.46 L37.85 38.90 L38.13 39.34 L38.41 39.78 L38.68 40.22 L38.93 40.65 L39.18 41.08 L39.41 41.50 L39.63 41.92 L39.84 42.34 L40.04 42.75 L40.23 43.16 L40.40 43.56 L40.56 43.95 L40.71 44.34 L40.85 44.71 L40.98 45.08 L41.10 45.45 L41.20 45.80 L41.29 46.14 L41.37 46.48 L41.44 46.80 L41.50 47.11 L41.54 47.42 L41.58 47.71 L41.60 47.99 L41.61 48.25 L41.62 48.51 L41.61 48.75 L41.59 48.98 L41.55 49.19 L41.51 49.39 L41.46 49.58 L41.40 49.76 L41.33 49.91 L41.25 50.06 L41.17 50.19 L41.07 50.30 L40.96 50.40 L40.85 50.48 L40.73 50.55" fill="none" stroke="#3a86ff" stroke-width="1.5" stroke-linecap="round" stroke-linejoin="round" opacity="0.92"/>
  <!-- soft edge shading on the sand -->
  <circle cx="32" cy="32" r="28" fill="url(#vignette)"/>
  <!-- the ball that draws the pattern, parked at the rim -->
  <circle cx="52.50" cy="32.00" r="2.6" fill="url(#ball)" stroke="#6b7689" stroke-width="0.4" />
</svg>
